name rise30.6535peak61.5555fall82.9339.mot
datacolumns 19
datarows 35
range 6.08996900000000 6.14663600000000
endheader
time	ground_force1_vx	ground_force1_vy	ground_force1_vz	ground_force1_px	ground_force1_py	ground_force1_pz	ground_force2_vx	ground_force2_vy	ground_force2_vz	ground_force2_px	ground_force2_py	ground_force2_pz	ground_torque1_x	ground_torque1_y	ground_torque1_z	ground_torque2_x	ground_torque2_y	ground_torque2_z	
6.08996900000000	-42.90717100000000	794.69966099999999	50.19045800000000	0.12033100000000	0.00000000000000	0.09839600000000	-4.43639200000000	31.75012600000000	4.92246700000000	0.33947300000000	0.00000000000000	-0.06824100000000	0.00000000000000	20.16557900000000	0.00000000000000	0.00000000000000	2.86009300000000	0.00000000000000	
6.09163600000000	-43.29384200000000	792.96599200000003	50.02231300000000	0.11978300000000	0.00000000000000	0.09819100000000	-4.98790500000000	37.85862200000000	5.68520500000000	0.34672900000000	0.00000000000000	-0.06864800000000	0.00000000000000	20.09339500000000	0.00000000000000	0.00000000000000	3.37357000000000	0.00000000000000	
6.09330500000000	-43.69821700000000	791.14125300000001	49.83312600000000	0.11924400000000	0.00000000000000	0.09798200000000	-5.46035800000000	44.07142100000000	6.40628000000000	0.35325600000000	0.00000000000000	-0.06903300000000	0.00000000000000	20.02049300000000	0.00000000000000	0.00000000000000	3.87749600000000	0.00000000000000	
6.09497200000000	-44.12064200000000	789.22383100000002	49.62251000000000	0.11871200000000	0.00000000000000	0.09776700000000	-5.83446600000000	50.28360700000000	7.06626400000000	0.35914500000000	0.00000000000000	-0.06939700000000	0.00000000000000	19.94688400000000	0.00000000000000	0.00000000000000	4.35881500000000	0.00000000000000	
6.09664300000000	-44.56139600000000	787.21205599999996	49.39010900000000	0.11818600000000	0.00000000000000	0.09754700000000	-6.09605100000000	56.40909800000000	7.65010600000000	0.36447000000000	0.00000000000000	-0.06974700000000	0.00000000000000	19.87257200000000	0.00000000000000	0.00000000000000	4.80672900000000	0.00000000000000	
6.09830900000000	-45.02069000000000	785.10419800000000	49.13560100000000	0.11766600000000	0.00000000000000	0.09732300000000	-6.23648000000000	62.38488500000000	8.14770000000000	0.36929500000000	0.00000000000000	-0.07008300000000	0.00000000000000	19.79755300000000	0.00000000000000	0.00000000000000	5.21320600000000	0.00000000000000	
6.09997200000000	-45.49866000000000	782.89846499999999	48.85869900000000	0.11715000000000	0.00000000000000	0.09709400000000	-6.25258700000000	68.17271800000000	8.55396800000000	0.37367300000000	0.00000000000000	-0.07041000000000	0.00000000000000	19.72181700000000	0.00000000000000	0.00000000000000	5.57318300000000	0.00000000000000	
6.10164100000000	-45.99536900000000	780.59300499999995	48.55915300000000	0.11663800000000	0.00000000000000	0.09686000000000	-6.14616400000000	73.75847899999999	8.86850500000000	0.37764900000000	0.00000000000000	-0.07072800000000	0.00000000000000	19.64534600000000	0.00000000000000	0.00000000000000	5.88448900000000	0.00000000000000	
6.10330500000000	-46.51079800000000	778.18591000000004	48.23675000000000	0.11612900000000	0.00000000000000	0.09662200000000	-5.92312700000000	79.14968100000000	9.09491500000000	0.38126100000000	0.00000000000000	-0.07103900000000	0.00000000000000	19.56811600000000	0.00000000000000	0.00000000000000	6.14754700000000	0.00000000000000	
6.10497400000000	-47.04484600000000	775.67521099999999	47.89131700000000	0.11562100000000	0.00000000000000	0.09638000000000	-5.59249700000000	84.37161500000001	9.23991900000000	0.38454300000000	0.00000000000000	-0.07134500000000	0.00000000000000	19.49009800000000	0.00000000000000	0.00000000000000	6.36490200000000	0.00000000000000	
6.10665200000000	-47.59732400000000	773.05888800000002	47.52272300000000	0.11511300000000	0.00000000000000	0.09613300000000	-5.16529700000000	89.46271000000000	9.31237100000000	0.38752400000000	0.00000000000000	-0.07164700000000	0.00000000000000	19.41125500000000	0.00000000000000	0.00000000000000	6.54066300000000	0.00000000000000	
6.10830200000000	-48.16795700000000	770.33486700000003	47.13087500000000	0.11460500000000	0.00000000000000	0.09588300000000	-4.65347900000000	94.46961899999999	9.32226400000000	0.39023000000000	0.00000000000000	-0.07194500000000	0.00000000000000	19.33154400000000	0.00000000000000	0.00000000000000	6.67990700000000	0.00000000000000	
6.10996900000000	-48.75637800000000	767.50102500000003	46.71572500000000	0.11409600000000	0.00000000000000	0.09562900000000	-4.06896300000000	99.44248600000000	9.27982000000000	0.39268200000000	0.00000000000000	-0.07224100000000	0.00000000000000	19.25091800000000	0.00000000000000	0.00000000000000	6.78811500000000	0.00000000000000	
6.11163900000000	-49.36212500000000	764.55519800000002	46.27727000000000	0.11358300000000	0.00000000000000	0.09537100000000	-3.42283800000000	104.43073000000000	9.19471000000000	0.39490200000000	0.00000000000000	-0.07253400000000	0.00000000000000	19.16932400000000	0.00000000000000	0.00000000000000	6.87067300000000	0.00000000000000	
6.11330400000000	-49.98464200000000	761.49518100000000	45.81554900000000	0.11306700000000	0.00000000000000	0.09510900000000	-2.72477200000000	109.47959500000000	9.07545600000000	0.39690600000000	0.00000000000000	-0.07282500000000	0.00000000000000	19.08670300000000	0.00000000000000	0.00000000000000	6.93246000000000	0.00000000000000	
6.11497400000000	-50.62327300000000	758.31873499999995	45.33064700000000	0.11254600000000	0.00000000000000	0.09484500000000	-1.98263200000000	114.62760600000000	8.92902300000000	0.39871000000000	0.00000000000000	-0.07311500000000	0.00000000000000	19.00299200000000	0.00000000000000	0.00000000000000	6.97756800000000	0.00000000000000	
6.11666400000000	-51.27726500000000	755.02359700000000	44.82269700000000	0.11201900000000	0.00000000000000	0.09457700000000	-1.20230400000000	119.90494200000001	8.76059800000000	0.40033000000000	0.00000000000000	-0.07340300000000	0.00000000000000	18.91812200000000	0.00000000000000	0.00000000000000	7.00911400000000	0.00000000000000	
6.11830700000000	-51.94576400000000	751.60748000000001	44.29187700000000	0.11148600000000	0.00000000000000	0.09430700000000	-0.38770100000000	125.33271400000000	8.57354100000000	0.40177700000000	0.00000000000000	-0.07369100000000	0.00000000000000	18.83202300000000	0.00000000000000	0.00000000000000	7.02918000000000	0.00000000000000	
6.11997100000000	-52.62781600000000	748.06808500000000	43.73841100000000	0.11094500000000	0.00000000000000	0.09403400000000	0.45908400000000	130.92301000000000	8.36948500000000	0.40306400000000	0.00000000000000	-0.07397700000000	0.00000000000000	18.74461700000000	0.00000000000000	0.00000000000000	7.03883600000000	0.00000000000000	
6.12163900000000	-53.32236500000000	744.40310999999997	43.16257200000000	0.11039500000000	0.00000000000000	0.09375900000000	1.33751700000000	136.67958999999999	8.14854400000000	0.40420200000000	0.00000000000000	-0.07426300000000	0.00000000000000	18.65582300000000	0.00000000000000	0.00000000000000	7.03824100000000	0.00000000000000	
6.12331100000000	-54.02825400000000	740.61025199999995	42.56468200000000	0.10983600000000	0.00000000000000	0.09348100000000	2.24828700000000	142.59903700000001	7.90959500000000	0.40520000000000	0.00000000000000	-0.07454700000000	0.00000000000000	18.56555900000000	0.00000000000000	0.00000000000000	7.02679600000000	0.00000000000000	
6.12497100000000	-54.74422600000000	736.68722200000002	41.94510700000000	0.10926600000000	0.00000000000000	0.09320100000000	3.19293900000000	148.67220800000001	7.65060600000000	0.40606700000000	0.00000000000000	-0.07483100000000	0.00000000000000	18.47373700000000	0.00000000000000	0.00000000000000	7.00333300000000	0.00000000000000	
6.12664400000000	-55.46892300000000	732.63175200000001	41.30426400000000	0.10868500000000	0.00000000000000	0.09291900000000	4.17351200000000	154.88581199999999	7.36896700000000	0.40681200000000	0.00000000000000	-0.07511400000000	0.00000000000000	18.38026600000000	0.00000000000000	0.00000000000000	6.96631000000000	0.00000000000000	
6.12830900000000	-56.20089000000000	728.44160399999998	40.64261500000000	0.10809300000000	0.00000000000000	0.09263600000000	5.19220000000000	161.22398500000000	7.06181200000000	0.40744300000000	0.00000000000000	-0.07539500000000	0.00000000000000	18.28505300000000	0.00000000000000	0.00000000000000	6.91400200000000	0.00000000000000	
6.12997100000000	-56.93857700000000	724.11458000000005	39.96067000000000	0.10748800000000	0.00000000000000	0.09235100000000	6.25105900000000	167.66973600000000	6.72629300000000	0.40796600000000	0.00000000000000	-0.07567600000000	0.00000000000000	18.18800300000000	0.00000000000000	0.00000000000000	6.84467500000000	0.00000000000000	
6.13164300000000	-57.68033800000000	719.64853300000004	39.25898700000000	0.10687000000000	0.00000000000000	0.09206500000000	7.35177800000000	174.20618999999999	6.35981300000000	0.40838800000000	0.00000000000000	-0.07595500000000	0.00000000000000	18.08901600000000	0.00000000000000	0.00000000000000	6.75672800000000	0.00000000000000	
6.13330900000000	-58.42443800000000	715.04138000000000	38.53816800000000	0.10623800000000	0.00000000000000	0.09177700000000	8.49551400000000	180.81757099999999	5.96019800000000	0.40871600000000	0.00000000000000	-0.07623200000000	0.00000000000000	17.98799400000000	0.00000000000000	0.00000000000000	6.64880300000000	0.00000000000000	
6.13497000000000	-59.16905500000000	710.29110800000001	37.79885900000000	0.10559200000000	0.00000000000000	0.09148900000000	9.68279200000000	187.48991000000001	5.52580500000000	0.40895600000000	0.00000000000000	-0.07650800000000	0.00000000000000	17.88483200000000	0.00000000000000	0.00000000000000	6.51986200000000	0.00000000000000	
6.13663900000000	-59.91228400000000	705.39579300000003	37.04175300000000	0.10493100000000	0.00000000000000	0.09120000000000	10.91346200000000	194.21147600000000	5.05558800000000	0.40911100000000	0.00000000000000	-0.07678300000000	0.00000000000000	17.77942700000000	0.00000000000000	0.00000000000000	6.36922100000000	0.00000000000000	
6.13831700000000	-60.65214100000000	700.35360600000001	36.26758500000000	0.10425600000000	0.00000000000000	0.09091100000000	12.18671200000000	200.97295099999999	4.54909600000000	0.40918900000000	0.00000000000000	-0.07705500000000	0.00000000000000	17.67167300000000	0.00000000000000	0.00000000000000	6.19656400000000	0.00000000000000	
6.13997100000000	-61.38656800000000	695.16283099999998	35.47712900000000	0.10356500000000	0.00000000000000	0.09062100000000	13.50111800000000	207.76739300000000	4.00644700000000	0.40919300000000	0.00000000000000	-0.07732500000000	0.00000000000000	17.56146400000000	0.00000000000000	0.00000000000000	6.00192600000000	0.00000000000000	
6.14163900000000	-62.11343900000000	689.82187399999998	34.67120400000000	0.10285900000000	0.00000000000000	0.09033100000000	14.85472500000000	214.59003400000000	3.42826600000000	0.40912800000000	0.00000000000000	-0.07759200000000	0.00000000000000	17.44869100000000	0.00000000000000	0.00000000000000	5.78565600000000	0.00000000000000	
6.14330900000000	-62.83056600000000	684.32928300000003	33.85066300000000	0.10213600000000	0.00000000000000	0.09004100000000	16.24514500000000	221.43795200000000	2.81560100000000	0.40899800000000	0.00000000000000	-0.07785700000000	0.00000000000000	17.33324600000000	0.00000000000000	0.00000000000000	5.54837200000000	0.00000000000000	
6.14497000000000	-63.53570300000000	678.68375700000001	33.01639900000000	0.10139800000000	0.00000000000000	0.08975100000000	17.66966400000000	228.30968400000000	2.16983800000000	0.40880800000000	0.00000000000000	-0.07811900000000	0.00000000000000	17.21501800000000	0.00000000000000	0.00000000000000	5.29090200000000	0.00000000000000	
6.14663600000000	-64.22655600000000	672.88416400000006	32.16933800000000	0.10064400000000	0.00000000000000	0.08946100000000	19.12534000000000	235.20479900000001	1.49260100000000	0.40856000000000	0.00000000000000	-0.07837800000000	0.00000000000000	17.09389800000000	0.00000000000000	0.00000000000000	5.01423200000000	0.00000000000000	
